<svg width="20" height="20" viewBox="0 0 20 20" fill="none" xmlns="http://www.w3.org/2000/svg">
<g clipPath="url(#clip0_57_3503)">
<path d="M10.0001 1.66669C12.0845 3.94865 13.269 6.91005 13.3334 10C13.269 13.09 12.0845 16.0514 10.0001 18.3334M10.0001 1.66669C7.91568 3.94865 6.73112 6.91005 6.66675 10C6.73112 13.09 7.91568 16.0514 10.0001 18.3334M10.0001 1.66669C5.39771 1.66669 1.66675 5.39765 1.66675 10C1.66675 14.6024 5.39771 18.3334 10.0001 18.3334M10.0001 1.66669C14.6025 1.66669 18.3334 5.39765 18.3334 10C18.3334 14.6024 14.6025 18.3334 10.0001 18.3334M2.08343 7.50002H17.9168M2.08341 12.5H17.9167" stroke="white" strokeWidth="1.4" strokeLinecap="round" strokeLinejoin="round"/>
</g>
<defs>
<clipPath id="clip0_57_3503">
<rect width="20" height="20" fill="white"/>
</clipPath>
</defs>
</svg>
