<svg width="20" height="20" viewBox="0 0 20 20" fill="none" xmlns="http://www.w3.org/2000/svg">
<g clipPath="url(#clip0_41_2923)">
<path fillRule="evenodd" clipRule="evenodd" d="M2.80814 8.96924C7.28074 6.85926 10.259 5.45719 11.7539 4.77679C16.0096 2.84679 16.904 2.51376 17.4792 2.5C17.6069 2.5 17.8881 2.52751 18.0802 2.69489C18.2332 2.83303 18.2718 3.0136 18.2971 3.15231C18.3229 3.29103 18.3483 3.58279 18.3229 3.8052C18.0929 6.44253 17.0961 12.8424 16.5848 15.7853C16.3674 17.0349 15.9457 17.4516 15.5368 17.4934C14.6424 17.5765 13.9648 16.8549 13.1084 16.2438C11.7539 15.286 10.9998 14.6887 9.68379 13.7446C8.16249 12.6619 9.14661 12.0651 10.0162 11.0936C10.2458 10.8436 14.1691 6.95613 14.2461 6.60934C14.2588 6.56749 14.2588 6.40126 14.1696 6.31757C14.0799 6.23446 13.9522 6.26197 13.8498 6.29006C13.7094 6.31757 11.5623 7.87212 7.38311 10.9405C6.76995 11.3991 6.22011 11.6209 5.72198 11.6071C5.17214 11.5934 4.12417 11.2741 3.3316 10.9961C2.37333 10.6631 1.60662 10.4825 1.67047 9.89956C1.70899 9.59404 2.09261 9.28852 2.80814 8.96924Z" fill="white"/>
</g>
<defs>
<clipPath id="clip0_41_2923">
<rect width="20" height="20" fill="white"/>
</clipPath>
</defs>
</svg>
