<svg width="32" height="32" viewBox="0 0 32 32" fill="none" xmlns="http://www.w3.org/2000/svg">
<path d="M26.6667 26.6667V17.3333M16 26.6667V13.3333M5.33333 26.6667L5.33333 21.3333M17.8756 6.70334L24.7668 9.28756M14.3984 7.20123L6.93364 12.7998M28.0809 8.58579C28.8619 9.36683 28.8619 10.6332 28.0809 11.4142C27.2998 12.1953 26.0335 12.1953 25.2525 11.4142C24.4714 10.6332 24.4714 9.36683 25.2525 8.58579C26.0335 7.80474 27.2998 7.80474 28.0809 8.58579ZM6.74755 12.5858C7.5286 13.3668 7.5286 14.6332 6.74755 15.4142C5.9665 16.1953 4.70017 16.1953 3.91912 15.4142C3.13807 14.6332 3.13807 13.3668 3.91912 12.5858C4.70017 11.8047 5.9665 11.8047 6.74755 12.5858ZM17.4142 4.58579C18.1953 5.36683 18.1953 6.63316 17.4142 7.41421C16.6332 8.19526 15.3668 8.19526 14.5858 7.41421C13.8047 6.63316 13.8047 5.36683 14.5858 4.58579C15.3668 3.80474 16.6332 3.80474 17.4142 4.58579Z" stroke="#374160" stroke-width="2" stroke-linecap="round" stroke-linejoin="round"/>
</svg>
