<svg width="32" height="32" viewBox="0 0 32 32" fill="none" xmlns="http://www.w3.org/2000/svg">
<path d="M10.6667 22.6667H21.3333M14.6903 3.68535L5.64719 10.7189C5.04269 11.189 4.74045 11.4241 4.5227 11.7185C4.32982 11.9793 4.18614 12.2731 4.0987 12.5854C4 12.938 4 13.321 4 14.0868V23.7333C4 25.2268 4 25.9735 4.29065 26.544C4.54631 27.0457 4.95426 27.4537 5.45603 27.7094C6.02646 28 6.77319 28 8.26667 28H23.7333C25.2268 28 25.9735 28 26.544 27.7094C27.0457 27.4537 27.4537 27.0457 27.7094 26.544C28 25.9735 28 25.2268 28 23.7333V14.0868C28 13.321 28 12.938 27.9013 12.5854C27.8139 12.2731 27.6702 11.9793 27.4773 11.7185C27.2596 11.4241 26.9573 11.189 26.3528 10.7189L17.3097 3.68536C16.8413 3.32102 16.6071 3.13885 16.3485 3.06882C16.1203 3.00704 15.8797 3.00704 15.6515 3.06882C15.3929 3.13885 15.1587 3.32102 14.6903 3.68535Z" stroke="white" stroke-width="2" stroke-linecap="round" stroke-linejoin="round"/>
</svg>
