<svg width="32" height="32" viewBox="0 0 32 32" fill="none" xmlns="http://www.w3.org/2000/svg">
<path d="M28 12.3333H20M28 5.33331H4M28 19.6666H20M28 26.6666H4M6.13333 21.3333H12.5333C13.2801 21.3333 13.6534 21.3333 13.9387 21.188C14.1895 21.0602 14.3935 20.8562 14.5213 20.6053C14.6667 20.3201 14.6667 19.9467 14.6667 19.2V12.8C14.6667 12.0532 14.6667 11.6799 14.5213 11.3947C14.3935 11.1438 14.1895 10.9398 13.9387 10.812C13.6534 10.6666 13.2801 10.6666 12.5333 10.6666H6.13333C5.3866 10.6666 5.01323 10.6666 4.72801 10.812C4.47713 10.9398 4.27316 11.1438 4.14532 11.3947C4 11.6799 4 12.0532 4 12.8V19.2C4 19.9467 4 20.3201 4.14532 20.6053C4.27316 20.8562 4.47713 21.0602 4.72801 21.188C5.01323 21.3333 5.3866 21.3333 6.13333 21.3333Z" stroke="#374160" stroke-width="2" stroke-linecap="round" stroke-linejoin="round"/>
</svg>
