<svg width="32" height="32" viewBox="0 0 32 32" fill="none" xmlns="http://www.w3.org/2000/svg">
<path d="M16 2.66666C17.751 2.66666 19.4848 3.01153 21.1024 3.6816C22.7201 4.35166 24.19 5.33379 25.4281 6.5719C26.6662 7.81002 27.6483 9.27987 28.3184 10.8976C28.9885 12.5152 29.3333 14.249 29.3333 16M16 2.66666V16M16 2.66666C8.6362 2.66666 2.66667 8.63619 2.66667 16C2.66667 23.3638 8.6362 29.3333 16 29.3333C23.3638 29.3333 29.3333 23.3638 29.3333 16M16 2.66666C23.3638 2.66666 29.3333 8.6362 29.3333 16M29.3333 16L16 16M29.3333 16C29.3333 18.1041 28.8353 20.1784 27.8801 22.0532C26.9248 23.928 25.5394 25.5501 23.8371 26.7869L16 16" stroke="#374160" strokeWidth="2" strokeLinecap="round" strokeLinejoin="round"/>
</svg>
