<svg width="23" height="29" viewBox="0 0 23 29" fill="none" xmlns="http://www.w3.org/2000/svg">
<path d="M18.6316 15.2731C18.6589 13.1184 19.794 11.0795 21.5947 9.95094C20.4587 8.29699 18.556 7.24833 16.5763 7.18519C14.4649 6.95925 12.418 8.4732 11.342 8.4732C10.2452 8.4732 8.58865 7.20762 6.80478 7.24503C4.47957 7.32162 2.3119 8.6693 1.18064 10.7417C-1.25112 15.0337 0.562755 21.3416 2.89218 24.811C4.05764 26.5099 5.41973 28.4076 7.20199 28.3403C8.94605 28.2665 9.59742 27.2065 11.7026 27.2065C13.7883 27.2065 14.3994 28.3403 16.2179 28.2975C18.0893 28.2665 19.2684 26.5911 20.393 24.8761C21.2304 23.6656 21.8747 22.3278 22.3022 20.9121C20.1029 19.9638 18.6342 17.7075 18.6316 15.2731Z" fill="white"/>
<path d="M15.1969 4.90355C16.2173 3.65479 16.72 2.04972 16.5983 0.429199C15.0393 0.596118 13.5993 1.35567 12.5652 2.55652C11.5539 3.72981 11.0276 5.30664 11.1271 6.86522C12.6866 6.88159 14.2197 6.14262 15.1969 4.90355Z" fill="white"/>
</svg>
