<svg width="20" height="20" viewBox="0 0 20 20" fill="none" xmlns="http://www.w3.org/2000/svg">
<g clipPath="url(#clip0_41_2864)">
<path d="M4.15583 9.52189C4.15585 9.41022 4.17792 9.29965 4.22077 9.19654C4.26362 9.09343 4.32641 8.99979 4.40554 8.92102C4.48466 8.84225 4.57856 8.77989 4.68184 8.73753C4.78512 8.69516 4.89575 8.67362 5.00738 8.67414L6.41917 8.67875C6.64427 8.67875 6.86015 8.76821 7.01933 8.92744C7.1785 9.08667 7.26792 9.30263 7.26792 9.52782V14.8685C7.42693 14.8214 7.63042 14.7711 7.85435 14.7183C8.00949 14.6818 8.14775 14.5939 8.24672 14.469C8.34569 14.344 8.39956 14.1892 8.39959 14.0298V7.40556C8.39959 7.18036 8.48901 6.96438 8.64818 6.80512C8.80735 6.64586 9.02323 6.55637 9.24835 6.55633H10.6644C10.8895 6.55637 11.1054 6.64586 11.2646 6.80512C11.4238 6.96438 11.5132 7.18036 11.5132 7.40556V13.5539C11.5132 13.5539 11.8674 13.4105 12.2123 13.2648C12.3405 13.2106 12.4498 13.1198 12.5267 13.0038C12.6037 12.8878 12.6447 12.7518 12.6448 12.6126V5.28281C12.6448 5.05765 12.7342 4.84171 12.8934 4.68249C13.0525 4.52326 13.2684 4.43378 13.4934 4.43374H14.908C15.133 4.43396 15.3487 4.52351 15.5076 4.68272C15.6666 4.84193 15.7559 5.05777 15.7559 5.28281V11.3186C16.9824 10.4295 18.2253 9.36002 19.2116 8.07413C19.3547 7.88748 19.4494 7.6683 19.4872 7.43613C19.5251 7.20397 19.5049 6.96604 19.4284 6.74358C18.9719 5.42953 18.2461 4.2253 17.2976 3.20795C16.3491 2.1906 15.1987 1.38252 13.9201 0.835445C12.6415 0.288364 11.2628 0.0143226 9.87227 0.0308574C8.48172 0.0473922 7.10993 0.354138 5.84469 0.931467C4.57944 1.5088 3.4486 2.34399 2.52454 3.38361C1.60047 4.42323 0.903524 5.64438 0.478299 6.96892C0.0530733 8.29345 -0.0910677 9.6922 0.0550987 11.0757C0.201265 12.4591 0.634521 13.7968 1.32714 15.0032C1.44781 15.2113 1.62534 15.3806 1.83888 15.4913C2.05242 15.6019 2.29309 15.6493 2.53263 15.6279C2.80022 15.6043 3.1334 15.571 3.52952 15.5245C3.70192 15.5049 3.86108 15.4226 3.97669 15.2931C4.09231 15.1637 4.1563 14.9962 4.15648 14.8227V9.52189" fill="white"/>
<path d="M4.12573 18.0869C5.61681 19.172 7.37891 19.8234 9.21706 19.9689C11.0552 20.1144 12.8978 19.7483 14.5409 18.9113C16.184 18.0742 17.5636 16.7987 18.5271 15.226C19.4905 13.6532 20.0003 11.8445 19.9999 9.99989C19.9999 9.76912 19.9892 9.54197 19.9739 9.31549C16.322 14.7641 9.57911 17.3113 4.12573 18.0869Z" fill="#F0B90B"/>
</g>
<defs>
<clipPath id="clip0_41_2864">
<rect width="20" height="20" fill="white"/>
</clipPath>
</defs>
</svg>
