<svg width="24" height="24" viewBox="0 0 24 24" fill="none" xmlns="http://www.w3.org/2000/svg">
<path fill-rule="evenodd" clip-rule="evenodd" d="M16.3561 19.2638C16.8014 19.8483 17.2535 20.4271 17.7122 21C22.2531 20.8498 24 17.7428 24 17.7428C24 10.8429 21.0406 5.25008 21.0406 5.25008C18.0823 2.93638 15.2671 3.00082 15.2671 3.00082L14.9792 3.34305C18.4725 4.458 20.0959 6.06471 20.0959 6.06471C18.1786 4.96363 16.0785 4.2651 13.911 4.00751C12.4313 3.83608 11.0136 3.87861 9.75972 4.05005C9.65259 4.05005 9.56068 4.0668 9.45659 4.08485L9.41094 4.09323C8.69147 4.15767 6.94514 4.43609 4.74656 5.44278C3.9857 5.80756 3.53405 6.06471 3.53405 6.06471C3.53405 6.06471 5.23959 4.37164 8.93799 3.25733L8.73286 3.00018C8.73286 3.00018 5.91707 2.93573 2.95884 5.25008C2.95884 5.25008 0 10.8429 0 17.7428C0 17.7428 1.72563 20.8492 6.26706 20.9994C6.26706 20.9994 7.02731 20.0352 7.64331 19.2206C5.03447 18.4079 4.04839 16.6936 4.04839 16.6936C4.04839 16.6936 4.25413 16.8431 4.6236 17.0577C4.64733 17.084 4.67512 17.1058 4.70577 17.1221C4.73621 17.1434 4.76725 17.1595 4.7983 17.1756C4.82873 17.1917 4.85977 17.2079 4.89082 17.2291C5.40455 17.5288 5.91828 17.7647 6.39063 17.9574C7.36936 18.3602 8.38044 18.6686 9.41155 18.879C10.9521 19.1787 12.7606 19.2863 14.7333 18.9003C15.6987 18.7288 16.6854 18.4291 17.7128 17.9787C18.5427 17.6523 19.3353 17.2284 20.0758 16.7148C20.0758 16.7148 19.0483 18.4717 16.3567 19.2644L16.3561 19.2638ZM6.06133 13.3719C6.06133 12.0649 6.98653 10.9937 8.15765 10.9937C9.32877 10.9937 10.2735 12.0649 10.2534 13.3719C10.2534 14.6789 9.32816 15.75 8.15765 15.75C7.00662 15.75 6.06133 14.6789 6.06133 13.3719ZM13.5616 13.3719C13.5616 12.0649 14.4862 10.9937 15.6573 10.9937C16.8284 10.9937 17.753 12.0649 17.753 13.3719C17.753 14.6789 16.8284 15.75 15.6573 15.75C14.5069 15.75 13.5616 14.6789 13.5616 13.3719Z" fill="white"/>
</svg>
