<svg width="26" height="26" viewBox="0 0 26 26" fill="none" xmlns="http://www.w3.org/2000/svg">
<path d="M2.6218 13.7726C2.47426 13.539 2.4005 13.4222 2.3592 13.2421C2.32818 13.1067 2.32818 12.8933 2.3592 12.758C2.4005 12.5778 2.47426 12.461 2.6218 12.2274C3.84099 10.2969 7.47002 5.41669 13.0004 5.41669C18.5309 5.41669 22.1599 10.2969 23.3791 12.2274C23.5266 12.461 23.6004 12.5778 23.6417 12.758C23.6727 12.8933 23.6727 13.1067 23.6417 13.2421C23.6004 13.4222 23.5266 13.539 23.3791 13.7726C22.1599 15.7031 18.5309 20.5834 13.0004 20.5834C7.47002 20.5834 3.84099 15.7031 2.6218 13.7726Z" stroke="#374160" stroke-width="2" stroke-linecap="round" stroke-linejoin="round"/>
<path d="M13.0004 16.25C14.7954 16.25 16.2504 14.7949 16.2504 13C16.2504 11.2051 14.7954 9.75002 13.0004 9.75002C11.2055 9.75002 9.75044 11.2051 9.75044 13C9.75044 14.7949 11.2055 16.25 13.0004 16.25Z" stroke="#374160" stroke-width="2" stroke-linecap="round" stroke-linejoin="round"/>
</svg>
