<svg width="24" height="24" viewBox="0 0 24 24" fill="none" xmlns="http://www.w3.org/2000/svg">
<path fillRule="evenodd" clipRule="evenodd" d="M3.36967 10.7631C8.73679 8.23111 12.3106 6.54862 14.1045 5.73214C19.2114 3.41615 20.2847 3.01651 20.9749 3C21.1282 3 21.4657 3.03302 21.6961 3.23387C21.8798 3.39964 21.926 3.61631 21.9564 3.78277C21.9874 3.94923 22.0178 4.29935 21.9874 4.56624C21.7113 7.73104 20.5152 15.4109 19.9016 18.9423C19.6407 20.4418 19.1348 20.9419 18.6441 20.9921C17.5708 21.0919 16.7577 20.2259 15.73 19.4926C14.1045 18.3432 13.1997 17.6265 11.6204 16.4936C9.79489 15.1942 10.9758 14.4782 12.0194 13.3123C12.2948 13.0124 17.0028 8.34735 17.0952 7.9312C17.1104 7.88099 17.1104 7.68151 17.0034 7.58109C16.8958 7.48135 16.7425 7.51437 16.6197 7.54807C16.4512 7.58109 13.8747 9.44654 8.85964 13.1286C8.12384 13.6789 7.46403 13.9451 6.86628 13.9286C6.20647 13.9121 4.94891 13.5289 3.99782 13.1953C2.8479 12.7957 1.92784 12.579 2.00446 11.8795C2.05069 11.5128 2.51103 11.1462 3.36967 10.7631Z" fill="white"/>
</svg>
