<svg width="24" height="27" viewBox="0 0 24 27" fill="none" xmlns="http://www.w3.org/2000/svg">
<g filter="url(#filter0_ii_39_2022)">
<path d="M0.773384 0.914548C0.475198 1.22871 0.29895 1.71627 0.29895 2.34765V24.906C0.29895 25.5384 0.475198 26.0249 0.773384 26.3391L0.84921 26.4125L13.5441 13.7757V13.6268V13.4779L0.84921 0.840088L0.773384 0.914548Z" fill="url(#paint0_linear_39_2022)"/>
<path d="M17.7749 17.9892L13.5439 13.7756V13.6267V13.4777L17.7759 9.26514L17.8712 9.3192L22.885 12.1548C24.3165 12.9647 24.3165 14.2897 22.885 15.1006L17.8712 17.9362L17.7749 17.9892Z" fill="url(#paint1_linear_39_2022)"/>
<g filter="url(#filter1_i_39_2022)">
<path d="M17.8715 17.9352L13.5432 13.6267L0.773438 26.339C1.2448 26.8367 2.02459 26.8979 2.90275 26.4022L17.8715 17.9352Z" fill="url(#paint2_linear_39_2022)"/>
</g>
<path d="M17.8715 9.31832L2.90275 0.852318C2.02459 0.355578 1.2448 0.417798 0.773438 0.915559L13.5442 13.6278L17.8715 9.31832Z" fill="url(#paint3_linear_39_2022)"/>
</g>
<defs>
<filter id="filter0_ii_39_2022" x="0.29895" y="0.509521" width="23.6597" height="26.2351" filterUnits="userSpaceOnUse" colorInterpolationFilters="sRGB">
<feFlood floodOpacity="0" result="BackgroundImageFix"/>
<feBlend mode="normal" in="SourceGraphic" in2="BackgroundImageFix" result="shape"/>
<feColorMatrix in="SourceAlpha" type="matrix" values="0 0 0 0 0 0 0 0 0 0 0 0 0 0 0 0 0 0 127 0" result="hardAlpha"/>
<feOffset dy="-0.795"/>
<feComposite in2="hardAlpha" operator="arithmetic" k2="-1" k3="1"/>
<feColorMatrix type="matrix" values="0 0 0 0 0 0 0 0 0 0 0 0 0 0 0 0 0 0 0.12 0"/>
<feBlend mode="normal" in2="shape" result="effect1_innerShadow_39_2022"/>
<feColorMatrix in="SourceAlpha" type="matrix" values="0 0 0 0 0 0 0 0 0 0 0 0 0 0 0 0 0 0 127 0" result="hardAlpha"/>
<feOffset dy="0.795"/>
<feComposite in2="hardAlpha" operator="arithmetic" k2="-1" k3="1"/>
<feColorMatrix type="matrix" values="0 0 0 0 1 0 0 0 0 1 0 0 0 0 1 0 0 0 0.25 0"/>
<feBlend mode="normal" in2="effect1_innerShadow_39_2022" result="effect2_innerShadow_39_2022"/>
</filter>
<filter id="filter1_i_39_2022" x="0.773438" y="13.6267" width="17.098" height="13.1179" filterUnits="userSpaceOnUse" colorInterpolationFilters="sRGB">
<feFlood floodOpacity="0" result="BackgroundImageFix"/>
<feBlend mode="normal" in="SourceGraphic" in2="BackgroundImageFix" result="shape"/>
<feColorMatrix in="SourceAlpha" type="matrix" values="0 0 0 0 0 0 0 0 0 0 0 0 0 0 0 0 0 0 127 0" result="hardAlpha"/>
<feOffset dy="-0.795"/>
<feComposite in2="hardAlpha" operator="arithmetic" k2="-1" k3="1"/>
<feColorMatrix type="matrix" values="0 0 0 0 0 0 0 0 0 0 0 0 0 0 0 0 0 0 0.08 0"/>
<feBlend mode="normal" in2="shape" result="effect1_innerShadow_39_2022"/>
</filter>
<linearGradient id="paint0_linear_39_2022" x1="12.4188" y1="2.10897" x2="-4.69865" y2="19.3052" gradientUnits="userSpaceOnUse">
<stop stop-color="#00A0FF"/>
<stop offset="0.0066" stop-color="#00A1FF"/>
<stop offset="0.2601" stop-color="#00BEFF"/>
<stop offset="0.5122" stop-color="#00D2FF"/>
<stop offset="0.7604" stop-color="#00DFFF"/>
<stop offset="1" stop-color="#00E3FF"/>
</linearGradient>
<linearGradient id="paint1_linear_39_2022" x1="24.7484" y1="13.6267" x2="-0.0449105" y2="13.6267" gradientUnits="userSpaceOnUse">
<stop stop-color="#FFE000"/>
<stop offset="0.4087" stop-color="#FFBD00"/>
<stop offset="0.7754" stop-color="#FFA500"/>
<stop offset="1" stop-color="#FF9C00"/>
</linearGradient>
<linearGradient id="paint2_linear_39_2022" x1="15.5209" y1="15.9665" x2="-7.69251" y2="39.2867" gradientUnits="userSpaceOnUse">
<stop stop-color="#FF3A44"/>
<stop offset="1" stop-color="#C31162"/>
</linearGradient>
<linearGradient id="paint3_linear_39_2022" x1="-2.44266" y1="-6.59389" x2="7.92278" y2="3.81924" gradientUnits="userSpaceOnUse">
<stop stop-color="#32A071"/>
<stop offset="0.0685" stop-color="#2DA771"/>
<stop offset="0.4762" stop-color="#15CF74"/>
<stop offset="0.8009" stop-color="#06E775"/>
<stop offset="1" stop-color="#00F076"/>
</linearGradient>
</defs>
</svg>
