<svg width="26" height="26" viewBox="0 0 26 26" fill="none" xmlns="http://www.w3.org/2000/svg">
<path d="M12.223 3.74107C12.4726 3.23522 12.5975 2.9823 12.767 2.90149C12.9144 2.83118 13.0858 2.83118 13.2332 2.90149C13.4027 2.9823 13.5276 3.23522 13.7772 3.74107L16.1461 8.5402C16.2199 8.68954 16.2567 8.76421 16.3106 8.82219C16.3583 8.87352 16.4155 8.91511 16.479 8.94465C16.5508 8.97802 16.6332 8.99006 16.7979 9.01415L22.0968 9.78866C22.6548 9.87022 22.9338 9.911 23.0629 10.0473C23.1753 10.1659 23.2281 10.3288 23.2067 10.4907C23.1821 10.6769 22.9802 10.8736 22.5762 11.2671L18.7433 15.0003C18.6238 15.1166 18.5641 15.1748 18.5255 15.2441C18.4914 15.3054 18.4695 15.3727 18.4611 15.4424C18.4515 15.521 18.4656 15.6032 18.4938 15.7676L19.3982 21.0406C19.4936 21.5968 19.5413 21.8748 19.4517 22.0399C19.3737 22.1834 19.235 22.2841 19.0744 22.3139C18.8898 22.3481 18.64 22.2168 18.1406 21.9542L13.4035 19.463C13.2559 19.3853 13.1821 19.3465 13.1043 19.3313C13.0355 19.3178 12.9647 19.3178 12.8959 19.3313C12.8181 19.3465 12.7443 19.3853 12.5967 19.463L7.85958 21.9542C7.36016 22.2168 7.11044 22.3481 6.9258 22.3139C6.76515 22.2841 6.62653 22.1834 6.54855 22.0399C6.45892 21.8748 6.50661 21.5968 6.602 21.0406L7.50637 15.7676C7.53457 15.6032 7.54867 15.521 7.53913 15.4424C7.53068 15.3727 7.50879 15.3054 7.47465 15.2441C7.43611 15.1748 7.37636 15.1166 7.25688 15.0003L3.42402 11.2671C3.02005 10.8736 2.81806 10.6769 2.79348 10.4907C2.7721 10.3288 2.82493 10.1659 2.93727 10.0473C3.06639 9.911 3.34538 9.87022 3.90338 9.78866L9.20225 9.01415C9.36704 8.99006 9.44944 8.97802 9.52119 8.94465C9.58473 8.91511 9.64192 8.87352 9.68962 8.82219C9.74348 8.76421 9.78034 8.68954 9.85405 8.5402L12.223 3.74107Z" stroke="white" stroke-width="2" stroke-linecap="round" stroke-linejoin="round"/>
</svg>
