<svg width="24" height="24" viewBox="0 0 24 24" fill="none" xmlns="http://www.w3.org/2000/svg">
<path d="M23 5.07682C22.1758 5.49232 21.3502 5.63059 20.3877 5.76955C21.3502 5.21577 22.0375 4.38477 22.3127 3.27655C21.4878 3.831 20.5253 4.10755 19.4252 4.38477C18.6003 3.55377 17.3626 3 16.1249 3C13.2374 3 11.0372 5.76955 11.7245 8.53841C8.01204 8.40014 4.71242 6.59986 2.37462 3.831C1.13692 5.90782 1.82491 8.53841 3.74991 9.92318C3.06193 9.92318 2.37462 9.64595 1.68731 9.36941C1.68731 11.4462 3.19952 13.3848 5.26213 13.9385C4.57414 14.0768 3.88751 14.2151 3.19952 14.0768C3.74991 15.8771 5.39973 17.2612 7.46233 17.2612C5.81252 18.5077 3.33712 19.1997 1 18.9232C3.06193 20.1697 5.40041 21 7.87513 21C16.2625 21 20.9374 13.9385 20.6629 7.43086C21.636 6.86613 22.4423 6.05396 23 5.07682Z" fill="white"/>
</svg>
